<svg xmlns="http://www.w3.org/2000/svg" width="24" height="24" fill="none" viewBox="0 0 24 24"><g clip-path="url(#a)"><path stroke="#000" stroke-linecap="round" stroke-linejoin="round" stroke-width="2" d="M10.1 2.18a9.9 9.9 0 0 1 3.8 0m3.7 1.53a10 10 0 0 1 2.69 2.7m1.53 3.69a9.9 9.9 0 0 1 0 3.8m-1.53 3.7a10 10 0 0 1-2.7 2.69m-3.69 1.53a9.9 9.9 0 0 1-3.8 0m-3.7-1.53a10 10 0 0 1-2.69-2.7M2.18 13.9a9.9 9.9 0 0 1 0-3.8m1.53-3.7a10 10 0 0 1 2.7-2.69M13 12a1 1 0 1 1-2 0 1 1 0 0 1 2 0"/></g><defs><clipPath id="a"><path fill="#fff" d="M0 0h24v24H0z"/></clipPath></defs></svg>