<svg xmlns="http://www.w3.org/2000/svg" width="24" height="24" fill="none" viewBox="0 0 24 24"><path stroke="#000" stroke-linecap="round" stroke-linejoin="round" stroke-width="2" d="M9 3H4a1 1 0 0 0-1 1v7a1 1 0 0 0 1 1h5a1 1 0 0 0 1-1V4a1 1 0 0 0-1-1"/><path stroke="#000" stroke-linecap="round" stroke-linejoin="round" stroke-width="2" d="M20 3h-5a1 1 0 0 0-1 1v3a1 1 0 0 0 1 1h5a1 1 0 0 0 1-1V4a1 1 0 0 0-1-1"/><path stroke="#000" stroke-linecap="round" stroke-linejoin="round" stroke-width="2" d="M20 12h-5a1 1 0 0 0-1 1v7a1 1 0 0 0 1 1h5a1 1 0 0 0 1-1v-7a1 1 0 0 0-1-1"/><path stroke="#000" stroke-linecap="round" stroke-linejoin="round" stroke-width="2" d="M9 16H4a1 1 0 0 0-1 1v3a1 1 0 0 0 1 1h5a1 1 0 0 0 1-1v-3a1 1 0 0 0-1-1"/></svg>